<svg xmlns="http://www.w3.org/2000/svg" viewBox="0 0 64 64"><circle cx="32" cy="32" r="31.5" fill="#ad8a50"/><circle cx="32" cy="32" r="27.4" fill="none" stroke="#7a5f33" stroke-width="1.3"/><circle cx="32" cy="4.4" r="1.5" fill="#e3c88c"/><circle cx="32" cy="59.6" r="1.5" fill="#e3c88c"/><g transform="translate(0.6 0)"><path d="M43 23L43 39A14 14 0 0 1 29 53C25.4 53 22.4 52.4 20.6 51Q19.2 49.8 20.3 48.4C22.4 45.6 25.6 44 29 44A5 5 0 0 0 34 39L34 37.02Q34 34.62 32 34.96A12 12 0 1 1 43 23Z" fill="#111a2e"/><path d="M28.44 14.81A4.6 4.6 0 1 0 32.88 21.32A3.95 3.95 0 0 1 28.44 14.81Z" fill="#ebe6d6"/><path d="M38.6 28.099999999999998Q38.6 30.4 40.9 30.4Q38.6 30.4 38.6 32.699999999999996Q38.6 30.4 36.300000000000004 30.4Q38.6 30.4 38.6 28.099999999999998ZM36.9 34.7Q36.9 36.2 38.4 36.2Q36.9 36.2 36.9 37.7Q36.9 36.2 35.4 36.2Q36.9 36.2 36.9 34.7Z" fill="#ebe6d6"/></g></svg>
